HIERARCHY
ROOT pelvis
{
  OFFSET 0 100 0
  CHANNELS 6 Xposition Yposition Zposition Zrotation Xrotation Yrotation
  JOINT pelvis_right_femur
  {
    OFFSET -10.78128 -3.44521 -0.5502486
    CHANNELS 3 Zrotation Xrotation Yrotation
    JOINT right_femur_tibia
    {
      OFFSET -0.8047443 -44.0398 -0.1307829
      CHANNELS 3 Zrotation Xrotation Yrotation
      JOINT right_tibia_foot
      {
        OFFSET 3.006224 -47.83518 -5
        CHANNELS 3 Zrotation Xrotation Yrotation
        End Site
        {
          OFFSET 0 -5 15
        }
      }
    }
  }
  JOINT pelvis_left_femur
  {
    OFFSET 10.78128 -3.44521 -0.5502486
    CHANNELS 3 Zrotation Xrotation Yrotation
    JOINT left_femur_tibia
    {
      OFFSET 0.8047443 -44.0398 -0.1307829
      CHANNELS 3 Zrotation Xrotation Yrotation
      JOINT left_tibia_foot
      {
        OFFSET -4.370144 -48.10324 -4.275266
        CHANNELS 3 Zrotation Xrotation Yrotation
        End Site
        {
          OFFSET 0 -5 15
        }
      }
    }
  }
  JOINT pelvis_spine1
  {
    OFFSET 0 6.468898 -3.129235
    CHANNELS 3 Zrotation Xrotation Yrotation
    JOINT spine1
    {
      OFFSET 0 23.15396 4.99043
      CHANNELS 3 Zrotation Xrotation Yrotation
      JOINT spine2
      {
        OFFSET 0 20.79997 -5.064912
        CHANNELS 3 Zrotation Xrotation Yrotation
        JOINT neck
        {
          OFFSET 0 14.38658 9.616178
          CHANNELS 3 Zrotation Xrotation Yrotation
          End Site
          {
            OFFSET 0 20 0
          }
        }
      }
      JOINT right_manubrium
      {
        OFFSET -5.722621 16.35077 3.967754
        CHANNELS 3 Zrotation Xrotation Yrotation
        JOINT right_clavicle
        {
          OFFSET -13.16364 1.694482 -4.693211
          CHANNELS 3 Zrotation Xrotation Yrotation
          JOINT right_humerus
          {
            OFFSET -28.5034 -0.3100689 -2.792744
            CHANNELS 3 Zrotation Xrotation Yrotation
            JOINT right_radius
            {
              OFFSET -25.15693 0.02248979 -1.271978
              CHANNELS 3 Zrotation Xrotation Yrotation
              End Site
              {
                OFFSET -15 0 0
              }
            }
          }
        }
      }
      JOINT left_manubrium
      {
        OFFSET 5.722621 16.35077 3.967754
        CHANNELS 3 Zrotation Xrotation Yrotation
        JOINT left_clavicle
        {
          OFFSET 13.16364 1.694482 -4.693211
          CHANNELS 3 Zrotation Xrotation Yrotation
          JOINT left_humerus
          {
            OFFSET 29.39168 -1.063119 -2.237045
            CHANNELS 3 Zrotation Xrotation Yrotation
            JOINT left_radius
            {
              OFFSET 24.59957 -0.9528479 0.9047498
              CHANNELS 3 Zrotation Xrotation Yrotation
              End Site
              {
                OFFSET 15 -0 -0
              }
            }
          }
        }
      }
    }
  }
}
MOTION
Frames: 21
Frame Time: 0.0416666666667
-43.80847 135.6128 782.8885 8.851305 -26.17822 19.92993 6.357434 14.23905 -19.30137 -0 22.29716 -0 -29.9845 -8.831756 1.897815 1.029709 9.503436 -14.6077 -0 14.82176 -0 4.213484 -4.920442 22.88056 2.537054 -4.807228 7.369359 2.20591 18.69157 -9.195514 1.255725 20.14534 0.9977789 -0.918536 -20.73544 3.736285 -5.305129 -29.8162 13.96726 95.02591 6.074651 -18.42239 -0 0 22.7836 -22.83823 15.43714 11.34476 1.002263 -26.66996 -11.25211 -92.86508 13.35505 30.72805 0 0 -17.04761 4.948508 15.59406 4.819854
-41.7888 135.5489 788.1427 8.366299 -26.32494 18.83254 6.353353 14.24278 -19.30136 -0 22.29919 -0 -29.98352 -8.828867 1.901407 1.027401 9.50333 -14.61166 -0 14.8138 -0 4.208578 -4.922303 22.88056 2.536398 -4.806436 7.36877 2.205524 18.69035 -9.194558 1.255773 20.14601 0.99857 -0.9180367 -20.73586 3.737001 -5.304948 -29.81572 13.96663 95.02534 6.077366 -18.42064 -0 0 22.78314 -22.8383 15.43613 11.34519 1.002401 -26.66844 -11.25109 -92.86569 13.35585 30.72833 0 0 -17.04412 4.948819 15.59401 4.81956
-39.86038 135.4847 793.4315 7.878796 -26.4648 17.73326 6.349091 14.24562 -19.30382 -0 22.30139 -0 -29.98422 -8.825677 1.905792 1.024755 9.506083 -14.61653 -0 14.80715 -0 4.203635 -4.925224 22.88077 2.535804 -4.805649 7.368105 2.205283 18.68915 -9.193919 1.25574 20.14675 0.9993371 -0.9175086 -20.73621 3.737529 -5.304971 -29.81485 13.96611 95.0252 6.07958 -18.41978 -0 0 22.78193 -22.83814 15.43464 11.34507 1.002601 -26.66738 -11.25041 -92.86568 13.35656 30.72759 0 0 -17.04213 4.949259 15.59403 4.818903
-38.0239 135.4205 798.7535 7.388766 -26.59777 16.63211 6.344893 14.24741 -19.30853 -0 22.3036 -0 -29.98649 -8.822377 1.910695 1.021933 9.511438 -14.62201 -0 14.80214 -0 4.198934 -4.929002 22.88119 2.535304 -4.80491 7.367406 2.205197 18.68806 -9.193621 1.255631 20.14752 1.000038 -0.9169826 -20.73648 3.737846 -5.30519 -29.81363 13.96572 95.02551 6.081186 -18.41984 -0 0 22.78004 -22.83777 15.43278 11.34442 1.00285 -26.66682 -11.25011 -92.86508 13.35712 30.72593 0 0 -17.04171 4.949799 15.5941 4.817932
-36.27999 135.356 804.1069 6.896139 -26.72374 15.52906 6.340994 14.24812 -19.31513 -0 22.30571 -0 -29.99017 -8.819158 1.915822 1.019101 9.519002 -14.62778 -0 14.79899 -0 4.194731 -4.933395 22.88177 2.534922 -4.80426 7.366711 2.205265 18.68712 -9.193669 1.255455 20.14826 1.000635 -0.9164881 -20.73666 3.737941 -5.305587 -29.81217 13.96547 95.02621 6.082116 -18.42077 -0 0 22.77762 -22.83722 15.43066 11.34331 1.003133 -26.66678 -11.25018 -92.86394 13.35752 30.72345 0 0 -17.04284 4.950405 15.59424 4.816713
-34.62928 135.2915 809.4902 6.400815 -26.8425 14.4241 6.337603 14.24772 -19.3232 -0 22.3076 -0 -29.99498 -8.816202 1.920875 1.016419 9.528271 -14.63349 -0 14.79781 -0 4.191246 -4.938134 22.88248 2.534676 -4.803732 7.366061 2.205477 18.68639 -9.194047 1.255224 20.14894 1.001098 -0.9160518 -20.73675 3.737817 -5.306132 -29.81054 13.96539 95.02727 6.082341 -18.4225 -0 0 22.77482 -22.83653 15.42841 11.34181 1.003431 -26.66724 -11.2506 -92.86235 13.35774 30.72034 0 0 -17.04538 4.95104 15.59441 4.815322
-33.07237 135.2268 814.9016 5.902697 -26.95377 13.31716 6.334893 14.24629 -19.33223 -0 22.30917 -0 -30.00062 -8.813669 1.925572 1.014033 9.538663 -14.63883 -0 14.79859 -0 4.188648 -4.94294 22.88327 2.534575 -4.803351 7.365491 2.205816 18.68589 -9.194723 1.254952 20.14953 1.001407 -0.9156963 -20.73673 3.737489 -5.306789 -29.80884 13.96546 95.0286 6.081873 -18.42489 -0 0 22.77181 -22.83574 15.42617 11.34002 1.003729 -26.66815 -11.25134 -92.8604 13.35777 30.71678 0 0 -17.04914 4.951668 15.59463 4.813846
-31.60983 135.1619 820.3395 5.401703 -27.05719 12.2082 6.332992 14.24393 -19.34168 -0 22.31034 -0 -30.00675 -8.811688 1.929662 1.012068 9.549554 -14.64351 -0 14.80122 -0 4.187053 -4.947539 22.8841 2.534618 -4.803134 7.365029 2.20626 18.68566 -9.195649 1.254658 20.14999 1.001549 -0.9154386 -20.73662 3.736982 -5.307518 -29.80718 13.96568 95.03013 6.080764 -18.42779 -0 0 22.76877 -22.8349 15.42405 11.33805 1.004009 -26.66946 -11.25235 -92.85823 13.35762 30.71301 0 0 -17.05388 4.952253 15.59486 4.812368
-30.24217 135.0971 825.8022 4.897788 -27.15239 11.09719 6.331981 14.24083 -19.35099 -0 22.31105 -0 -30.01299 -8.810354 1.932934 1.010619 9.560312 -14.64729 -0 14.80549 -0 4.186516 -4.951681 22.88492 2.5348 -4.803087 7.364698 2.206778 18.68568 -9.196762 1.254357 20.1503 1.001522 -0.9152899 -20.73643 3.736331 -5.308275 -29.80564 13.96603 95.03175 6.0791 -18.43102 -0 0 22.76587 -22.83406 15.42218 11.33602 1.004256 -26.67106 -11.25356 -92.85596 13.3573 30.70922 0 0 -17.05928 4.952763 15.59511 4.810974
-28.96987 135.0321 831.2878 4.39096 -27.23893 9.984119 6.331884 14.23717 -19.35965 -0 22.31129 -0 -30.019 -8.809717 1.935232 1.009749 9.570335 -14.64999 -0 14.81109 -0 4.187029 -4.955147 22.88568 2.535103 -4.803208 7.364512 2.20734 18.68595 -9.197995 1.254068 20.15045 1.001334 -0.9152547 -20.73616 3.735578 -5.309016 -29.80431 13.96648 95.03338 6.076992 -18.43439 -0 0 22.76327 -22.83327 15.42065 11.33405 1.004457 -26.67287 -11.2549 -92.85372 13.35684 30.70565 0 0 -17.06503 4.953173 15.59534 4.809739
-27.79335 134.9672 836.7946 3.881293 -27.31642 8.869031 6.332675 14.23318 -19.3672 -0 22.31106 -0 -30.02443 -8.809789 1.936461 1.009487 9.579086 -14.65149 -0 14.81767 -0 4.188527 -4.957767 22.88634 2.535508 -4.803482 7.364476 2.207912 18.68645 -9.199272 1.253805 20.15044 1.001001 -0.9153311 -20.73584 3.734769 -5.3097 -29.80326 13.96701 95.03492 6.074576 -18.43769 -0 0 22.7611 -22.83256 15.41953 11.33224 1.004603 -26.67477 -11.25628 -92.85164 13.35627 30.70248 0 0 -17.07078 4.953462 15.59556 4.808727
-26.71299 134.9023 842.321 3.368928 -27.38447 7.751998 6.33428 14.2291 -19.37325 -0 22.31039 -0 -30.02902 -8.810537 1.936589 1.009826 9.586115 -14.65175 -0 14.82482 -0 4.190891 -4.959422 22.88688 2.535988 -4.803889 7.364587 2.208461 18.68714 -9.200521 1.253584 20.15027 1.000546 -0.9155109 -20.73548 3.733951 -5.310291 -29.80253 13.96758 95.03628 6.071998 -18.44075 -0 0 22.75947 -22.83198 15.41887 11.33069 1.004687 -26.67665 -11.25762 -92.84984 13.35562 30.69988 0 0 -17.07621 4.953619 15.59574 4.807987
-25.72911 134.8375 847.8651 2.854081 -27.44274 6.633143 6.336577 14.22517 -19.3775 -0 22.30934 -0 -30.03252 -8.811895 1.935647 1.010725 9.591087 -14.65081 -0 14.83213 -0 4.193958 -4.960052 22.88726 2.536512 -4.804403 7.364834 2.208958 18.68798 -9.201672 1.253414 20.14995 1 -0.9157803 -20.73511 3.733172 -5.310759 -29.80215 13.96816 95.03741 6.069409 -18.4434 -0 0 22.75846 -22.83155 15.4187 11.32948 1.004707 -26.6784 -11.25886 -92.84839 13.35493 30.69797 0 0 -17.08103 4.953639 15.59589 4.807552
-24.84198 134.7727 853.4251 2.337034 -27.49094 5.512636 6.339415 14.2216 -19.37979 -0 22.30798 -0 -30.03479 -8.813761 1.933727 1.012113 9.593793 -14.64875 -0 14.83918 -0 4.19753 -4.959658 22.88747 2.537051 -4.804989 7.365198 2.209376 18.68891 -9.202664 1.253305 20.14952 0.9993972 -0.9161211 -20.73476 3.732473 -5.311082 -29.80214 13.96871 95.03824 6.066955 -18.4455 -0 0 22.7581 -22.8313 15.419 11.32866 1.004663 -26.67994 -11.25992 -92.84738 13.35425 30.69684 0 0 -17.08498 4.953526 15.59599 4.807435
-24.05183 134.7081 858.9994 1.818131 -27.52888 4.390693 6.342613 14.21858 -19.38004 -0 22.3064 -0 -30.03572 -8.816012 1.930972 1.013896 9.594161 -14.64573 -0 14.84557 -0 4.201388 -4.958298 22.8875 2.537573 -4.805612 7.365655 2.209695 18.68987 -9.203447 1.253259 20.149 0.9987725 -0.9165114 -20.73443 3.731891 -5.311246 -29.80248 13.96922 95.03873 6.064769 -18.44697 -0 0 22.75839 -22.83123 15.41975 11.32827 1.00456 -26.68118 -11.26075 -92.84684 13.3536 30.69653 0 0 -17.08788 4.953292 15.59603 4.807632
-23.35885 134.6435 864.5863 1.297765 -27.55644 3.267569 6.345977 14.21625 -19.37832 -0 22.30469 -0 -30.03533 -8.818507 1.927567 1.015958 9.592253 -14.64196 -0 14.85098 -0 4.205303 -4.956083 22.88736 2.538049 -4.806237 7.366174 2.209899 18.69082 -9.203983 1.253277 20.14842 0.9981624 -0.9169276 -20.73414 3.731455 -5.311248 -29.80314 13.96964 95.03888 6.062966 -18.44773 -0 0 22.75928 -22.83133 15.42088 11.32832 1.004407 -26.68206 -11.26132 -92.84679 13.35304 30.69702 0 0 -17.08959 4.952953 15.59603 4.80812
-22.76317 134.5792 870.184 0.7763627 -27.5736 2.14355 6.349313 14.21474 -19.3748 -0 22.30296 -0 -30.03368 -8.821097 1.923727 1.018174 9.588256 -14.63767 -0 14.85513 -0 4.209054 -4.953168 22.88706 2.538455 -4.806827 7.366726 2.209982 18.69169 -9.204252 1.253356 20.14782 0.9976006 -0.9173452 -20.73392 3.731184 -5.311093 -29.80407 13.96996 95.03868 6.061634 -18.44777 -0 0 22.76071 -22.8316 15.42232 11.32878 1.004213 -26.68255 -11.2616 -92.84721 13.35258 30.69826 0 0 -17.09007 4.952533 15.59597 4.808863
-22.26489 134.5149 875.7908 0.2543708 -27.58044 1.018945 6.352433 14.21408 -19.36974 -0 22.3013 -0 -30.0309 -8.823634 1.919685 1.020413 9.58247 -14.63313 -0 14.85783 -0 4.212434 -4.949742 22.88663 2.538769 -4.80735 7.367277 2.209944 18.69245 -9.204247 1.253489 20.14723 0.9971173 -0.9177406 -20.73376 3.731088 -5.310796 -29.80521 13.97017 95.03816 6.060831 -18.44711 -0 0 22.76257 -22.83202 15.42398 11.32961 1.003991 -26.68263 -11.26158 -92.84807 13.35225 30.70014 0 0 -17.08933 4.952059 15.59587 4.809807
-21.86411 134.4508 881.4052 -0.2677626 -27.57709 -0.1059249 6.355168 14.2143 -19.36347 -0 22.2998 -0 -30.02719 -8.825979 1.915675 1.02255 9.575285 -14.6286 -0 14.85897 -0 4.215265 -4.946017 22.88608 2.538978 -4.80778 7.367796 2.209789 18.69305 -9.203979 1.253668 20.14668 0.9967369 -0.9180923 -20.73369 3.731165 -5.310379 -29.80648 13.97025 95.03736 6.060584 -18.44582 -0 0 22.76476 -22.83255 15.42575 11.33076 1.003755 -26.68231 -11.26128 -92.84929 13.35206 30.70255 0 0 -17.08745 4.951558 15.59573 4.810894
-21.56087 134.3867 887.0255 -0.7896018 -27.56378 -1.230736 6.357379 14.21534 -19.3564 -0 22.29854 -0 -30.02281 -8.828007 1.911922 1.024466 9.567155 -14.62433 -0 14.85855 -0 4.217407 -4.942212 22.88546 2.539072 -4.808095 7.368256 2.209533 18.69347 -9.203471 1.253879 20.14621 0.9964772 -0.9183819 -20.73369 3.731406 -5.309868 -29.80782 13.97021 95.03633 6.060887 -18.44399 -0 0 22.76712 -22.83317 15.42753 11.33215 1.003518 -26.68163 -11.26072 -92.8508 13.35202 30.70533 0 0 -17.08458 4.951061 15.59557 4.812056
-21.3552 134.3228 892.65 -1.310738 -27.54078 -2.355172 6.358958 14.21712 -19.34895 -0 22.29758 -0 -30.018 -8.829618 1.908629 1.026063 9.558573 -14.62057 -0 14.85663 -0 4.218764 -4.938547 22.8848 2.539052 -4.808282 7.368632 2.209191 18.69369 -9.202762 1.25411 20.14583 0.9963487 -0.9185952 -20.73377 3.731791 -5.309297 -29.80914 13.97005 95.03514 6.061704 -18.44174 -0 0 22.76953 -22.83383 15.42922 11.3337 1.003294 -26.68063 -11.25995 -92.8525 13.35212 30.7083 0 0 -17.08092 4.950595 15.59538 4.813226
